# xmcd
#
# Track frame offsets:
# 150
# 27846
# 50332
# 74602
# 101546
# 123057
# 139358
# 162875
# 179454
# 206064
# 222448
# 247749
# 293195
#
# Disc length: 4150 seconds
#
#
# Revision: 2
# Processed by: cddbd v1.5PL3 Copyright (c) Steve Scherf et al.
# Submitted via: FreeRIP 2.60 
#
DISCID=c110340d
DTITLE=Big Allanbik - Blues Special Reserve
DYEAR=1998
DGENRE=Blues
TTITLE0=Red Hot Kisses
TTITLE1=I Feel So Good
TTITLE2=Down And Out
TTITLE3=Big Fat Woman
TTITLE4=Afternoon
TTITLE5=Where s Yvone ?
TTITLE6=I Can t Get Next To You
TTITLE7=Clouds (Tribute To Roy Buchanan)
TTITLE8=One More Drag To You
TTITLE9=Fore Day Rider
TTITLE10=The Bad Is Shakin  - La Canja
TTITLE11=A Fool For Your Stockings
TTITLE12=Ride On Pony
EXTD=
EXTT0=
EXTT1=
EXTT2=
EXTT3=
EXTT4=
EXTT5=
EXTT6=
EXTT7=
EXTT8=
EXTT9=
EXTT10=
EXTT11=
EXTT12=
PLAYORDER=
